<?xml version="1.0" encoding="UTF-8"?>
<!DOCTYPE svg PUBLIC "-//W3C//DTD SVG 1.1//EN" "http://www.w3.org/Graphics/SVG/1.1/DTD/svg11.dtd">
<svg xmlns="http://www.w3.org/2000/svg" version="1.1" width="1024px" height="1024px" style="shape-rendering:geometricPrecision; text-rendering:geometricPrecision; image-rendering:optimizeQuality; fill-rule:evenodd; clip-rule:evenodd" xmlns:xlink="http://www.w3.org/1999/xlink">
<g><path style="opacity:0.405" fill="#8b5d80" d="M 498.5,127.5 C 540.241,125.415 581.241,129.082 621.5,138.5C 647.09,146.252 672.09,155.585 696.5,166.5C 696.785,168.288 696.452,169.955 695.5,171.5C 692.039,177.329 688.873,183.329 686,189.5C 674.233,183.026 662.066,177.526 649.5,173C 601.695,159.487 552.695,152.82 502.5,153C 464.076,155.996 427.076,164.329 391.5,178C 382.853,181.74 374.353,185.907 366,190.5C 364.234,191.233 362.401,191.567 360.5,191.5C 358.9,184.878 356.4,178.545 353,172.5C 351.989,171.663 350.822,171.33 349.5,171.5C 349.33,170.178 349.663,169.011 350.5,168C 397.04,144.194 446.373,130.694 498.5,127.5 Z"/></g>
<g><path style="opacity:0.993" fill="#cb334b" d="M 531.5,129.5 C 517.841,130.073 504.174,130.406 490.5,130.5C 504.136,128.477 517.803,128.144 531.5,129.5 Z"/></g>
<g><path style="opacity:1" fill="#ea1c31" d="M 531.5,129.5 C 553.653,130.032 575.653,131.865 597.5,135C 605.913,137.798 614.58,139.798 623.5,141C 647.439,149.07 671.106,157.903 694.5,167.5C 691.037,173.625 688.037,179.958 685.5,186.5C 676.309,182.72 667.143,178.72 658,174.5C 624.812,163.121 590.646,155.955 555.5,153C 496.421,147.44 439.754,155.774 385.5,178C 377.77,181.46 370.27,185.293 363,189.5C 361.297,181.889 357.797,175.223 352.5,169.5C 355.896,166.869 359.562,164.702 363.5,163C 403.874,144.494 446.207,133.66 490.5,130.5C 504.174,130.406 517.841,130.073 531.5,129.5 Z"/></g>
<g><path style="opacity:0.966" fill="#aaf022" d="M 313.5,176.5 C 331.214,176.056 340.881,184.556 342.5,202C 341.082,217.68 332.582,226.513 317,228.5C 295.178,225.517 287.011,213.183 292.5,191.5C 296.54,182.317 303.54,177.317 313.5,176.5 Z"/></g>
<g><path style="opacity:0.888" fill="#00b9f2" d="M 726.5,176.5 C 743.788,176.633 753.788,185.133 756.5,202C 754.527,216.975 746.027,225.808 731,228.5C 711.338,225.441 703.005,213.775 706,193.5C 710.049,184.269 716.882,178.602 726.5,176.5 Z"/></g>
<g><path style="opacity:0.875" fill="#fec20e" d="M 362.5,200.5 C 370.701,200.314 378.701,201.481 386.5,204C 416.026,214.73 444.692,227.397 472.5,242C 479.18,245.673 485.847,249.339 492.5,253C 493.059,253.725 493.392,254.558 493.5,255.5C 487.408,262.753 482.742,270.42 479.5,278.5C 468.612,270.577 457.112,263.577 445,257.5C 416.297,245.202 387.13,234.202 357.5,224.5C 358.848,219.439 360.348,214.439 362,209.5C 362.498,206.518 362.665,203.518 362.5,200.5 Z"/></g>
<g><path style="opacity:0.866" fill="#abf322" d="M 677.5,201.5 C 679.5,201.5 681.5,201.5 683.5,201.5C 684.583,210.136 686.583,218.47 689.5,226.5C 659.305,235.143 629.972,246.31 601.5,260C 591.103,265.572 581.103,271.739 571.5,278.5C 569.17,270.513 565.17,263.513 559.5,257.5C 558.548,255.955 558.215,254.288 558.5,252.5C 559.873,252.657 561.207,252.49 562.5,252C 599.338,231.352 637.671,214.519 677.5,201.5 Z"/></g>
<g><path style="opacity:0.62" fill="#8b5e81" d="M 233.5,271.5 C 233.5,268.5 233.5,265.5 233.5,262.5C 238.406,255.583 243.74,248.916 249.5,242.5C 256.329,235.172 263.663,228.339 271.5,222C 273.259,221.202 274.926,221.369 276.5,222.5C 279.855,229.21 284.188,235.21 289.5,240.5C 278.261,254.573 265.594,267.073 251.5,278C 243.551,280.853 237.551,278.687 233.5,271.5 Z"/></g>
<g><path style="opacity:1" fill="#ea1c31" d="M 272.5,222.5 C 273.496,222.414 274.329,222.748 275,223.5C 277.894,229.062 281.561,234.062 286,238.5C 286.667,239.5 286.667,240.5 286,241.5C 276.869,252.965 266.702,263.465 255.5,273C 252.318,275.091 248.985,276.925 245.5,278.5C 236.217,276.237 232.884,270.57 235.5,261.5C 246.814,247.519 259.148,234.519 272.5,222.5 Z"/></g>
<g><path style="opacity:0.964" fill="#aaf022" d="M 815.5,260.5 C 841.774,261.291 851.44,274.458 844.5,300C 834.372,313.121 821.705,316.121 806.5,309C 799.189,302.797 795.355,294.964 795,285.5C 796.196,280.402 797.862,275.402 800,270.5C 801.833,269.333 803.333,267.833 804.5,266C 808.452,264.305 812.119,262.472 815.5,260.5 Z"/></g>
<g><path style="opacity:0.998" fill="#fabe0f" d="M 525.5,262.5 C 538.009,262.337 546.343,268.171 550.5,280C 553.24,291.452 550.907,301.119 543.5,309C 533.583,315.307 523.083,316.141 512,311.5C 507.241,307.639 503.741,303.306 501.5,298.5C 499.386,289.209 500.719,280.543 505.5,272.5C 507.833,270.833 509.833,268.833 511.5,266.5C 516.063,264.396 520.729,263.063 525.5,262.5 Z"/></g>
<g><path style="opacity:0.427" fill="#c06475" d="M 233.5,262.5 C 233.5,265.5 233.5,268.5 233.5,271.5C 232.102,270.223 231.436,268.557 231.5,266.5C 231.34,264.645 232.007,263.312 233.5,262.5 Z"/></g>
<g><path style="opacity:0.866" fill="#fec20e" d="M 208.5,302.5 C 220.346,303.352 224.679,309.519 221.5,321C 210.77,339.723 200.937,358.89 192,378.5C 185.462,393.315 180.462,408.649 177,424.5C 176.667,424.833 176.333,425.167 176,425.5C 169.022,422.752 161.856,420.585 154.5,419C 153.484,418.481 152.818,417.647 152.5,416.5C 161.891,379.022 176.225,344.022 195.5,311.5C 197.167,309.5 198.833,307.5 200.5,305.5C 203.37,304.743 206.036,303.743 208.5,302.5 Z"/></g>
<g><path style="opacity:0.88" fill="#00b9f2" d="M 565.5,307.5 C 566.978,307.238 568.311,307.571 569.5,308.5C 609.336,346.183 645.17,387.517 677,432.5C 689.158,450.827 699.325,470.16 707.5,490.5C 707.291,491.086 706.957,491.586 706.5,492C 698.2,494.569 690.367,498.069 683,502.5C 675.842,486.425 667.842,470.759 659,455.5C 635.967,420.137 609.967,387.137 581,356.5C 571.996,346.866 562.329,337.866 552,329.5C 551.685,328.092 552.018,326.759 553,325.5C 559.356,320.985 563.522,314.985 565.5,307.5 Z"/></g>
<g><path style="opacity:0.868" fill="#abf322" d="M 481.5,309.5 C 482.833,309.5 484.167,309.5 485.5,309.5C 489.037,316.375 494.037,322.042 500.5,326.5C 501.429,327.689 501.762,329.022 501.5,330.5C 500.448,330.351 499.448,330.517 498.5,331C 471.232,355.314 446.232,381.814 423.5,410.5C 422.571,411.689 422.238,413.022 422.5,414.5C 418.179,413.877 414.512,411.877 411.5,408.5C 408.367,406.454 405.034,404.788 401.5,403.5C 399.816,402.146 399.316,400.479 400,398.5C 424.461,366.154 451.628,336.488 481.5,309.5 Z"/></g>
<g><path style="opacity:0.888" fill="#01b9f1" d="M 851.5,665.5 C 853.017,665.489 854.184,664.823 855,663.5C 857.391,657.051 860.058,650.718 863,644.5C 863.703,642.071 863.537,639.738 862.5,637.5C 863.391,636.739 864.058,635.739 864.5,634.5C 886.997,566.665 890.663,497.665 875.5,427.5C 868.63,400.689 859.297,375.189 847.5,351C 843.956,344.772 839.956,338.772 835.5,333C 839.07,330.085 843.07,327.752 847.5,326C 850.692,323.138 853.859,320.305 857,317.5C 857.925,318.047 858.758,318.713 859.5,319.5C 885.274,366.913 902.108,417.247 910,470.5C 917.601,538.656 908.268,603.989 882,666.5C 858.42,719.478 825.587,765.978 783.5,806C 782.207,806.49 780.873,806.657 779.5,806.5C 776.264,798.338 770.931,792.005 763.5,787.5C 763.5,785.833 763.5,784.167 763.5,782.5C 766.937,782.448 769.937,781.281 772.5,779C 786.276,767.128 798.609,753.961 809.5,739.5C 823.34,719.518 836.173,698.851 848,677.5C 850.027,673.772 851.193,669.772 851.5,665.5 Z"/></g>
<g><path style="opacity:0.871" fill="#fec20e" d="M 796.5,325.5 C 804.882,328.47 813.548,330.47 822.5,331.5C 807.178,385.253 786.178,436.753 759.5,486C 755.955,491.593 752.288,497.093 748.5,502.5C 747.5,502.833 746.5,503.167 745.5,503.5C 740.623,501.417 735.957,498.917 731.5,496C 728.555,494.869 725.555,494.036 722.5,493.5C 747.891,451.198 769.558,406.531 787.5,359.5C 790.146,347.057 793.146,335.724 796.5,325.5 Z"/></g>
<g><path style="opacity:0.972" fill="#e71b2f" d="M 382.5,420.5 C 392.279,420.095 400.612,423.262 407.5,430C 407.167,430.333 406.833,430.667 406.5,431C 408.654,432.32 410.154,434.153 411,436.5C 411.744,443.693 411.577,450.859 410.5,458C 407.952,461.072 405.952,464.072 404.5,467C 401.071,469.875 397.071,471.708 392.5,472.5C 388.5,473.833 384.5,473.833 380.5,472.5C 375.906,471.307 371.573,469.64 367.5,467.5C 365.181,463.794 363.347,460.127 362,456.5C 358.738,446.286 360.404,437.619 367,430.5C 367.483,429.552 367.649,428.552 367.5,427.5C 372.443,424.977 377.443,422.644 382.5,420.5 Z"/></g>
<g><path style="opacity:0.866" fill="#00b9f2" d="M 327.5,425.5 C 332.833,425.5 338.167,425.5 343.5,425.5C 341.368,434.007 340.035,442.673 339.5,451.5C 298.299,454.4 256.966,458.567 215.5,464C 210.77,464.847 206.103,466.014 201.5,467.5C 200.558,467.392 199.725,467.059 199,466.5C 197.684,458.86 195.85,451.36 193.5,444C 193.439,442.289 194.106,440.956 195.5,440C 223.379,435.201 251.379,431.534 279.5,429C 287.549,428.803 295.549,428.303 303.5,427.5C 304.086,427.709 304.586,428.043 305,428.5C 312.823,428.177 320.323,427.177 327.5,425.5 Z"/></g>
<g><path style="opacity:0.872" fill="#abf322" d="M 431.5,429.5 C 494.668,438.077 556.001,453.577 615.5,476C 636.979,485.213 658.312,494.713 679.5,504.5C 674.088,511.65 669.922,519.65 667,528.5C 634.806,510.435 600.973,496.268 565.5,486C 521.751,473.212 477.418,463.212 432.5,456C 431.516,447.251 431.183,438.418 431.5,429.5 Z"/></g>
<g><path style="opacity:0.979" fill="#02b5ed" d="M 147.5,439.5 C 156.785,438.822 165.119,441.156 172.5,446.5C 172.351,447.552 172.517,448.552 173,449.5C 174.767,450.817 176.101,452.484 177,454.5C 179.364,463.9 178.53,472.9 174.5,481.5C 165.683,490.596 155.017,493.429 142.5,490C 139.087,487.082 135.754,484.749 132.5,483C 124.451,468.087 126.451,454.754 138.5,443C 141.598,441.772 144.598,440.606 147.5,439.5 Z"/></g>
<g><path style="opacity:0.869" fill="#fec20e" d="M 349.5,477.5 C 350.978,477.238 352.311,477.571 353.5,478.5C 359.241,484.038 365.908,488.038 373.5,490.5C 363.468,513.419 354.301,536.752 346,560.5C 325.671,622.911 317.338,687.245 321,753.5C 322.113,754.76 322.28,755.927 321.5,757C 322.393,763.097 323.06,769.264 323.5,775.5C 318.167,775.933 312.834,776.433 307.5,777C 303.661,777.484 300.161,778.651 297,780.5C 296.586,780.043 296.086,779.709 295.5,779.5C 288.945,690.581 300.778,604.581 331,521.5C 337.463,506.913 343.63,492.246 349.5,477.5 Z"/></g>
<g><path style="opacity:0.885" fill="#eb1b2f" d="M 141.5,510.5 C 143.897,511.368 146.397,512.035 149,512.5C 154.74,510.976 160.574,510.309 166.5,510.5C 168.882,585.866 189.382,655.199 228,718.5C 244.224,742.982 263.224,764.982 285,784.5C 285.667,785.5 285.667,786.5 285,787.5C 280.585,792.415 276.752,797.748 273.5,803.5C 271.102,804.724 268.769,804.558 266.5,803C 229.329,769.25 200.162,730.083 179,685.5C 158.975,641.258 146.642,594.924 142,546.5C 141.5,534.505 141.333,522.505 141.5,510.5 Z"/></g>
<g><path style="opacity:0.972" fill="#e71b2f" d="M 702.5,513.5 C 730.679,510.672 742.013,523.005 736.5,550.5C 729.183,563.397 718.183,567.73 703.5,563.5C 688.57,555.807 683.737,543.807 689,527.5C 690.726,525.409 691.893,523.076 692.5,520.5C 693.552,520.649 694.552,520.483 695.5,520C 697.782,517.542 700.116,515.376 702.5,513.5 Z"/></g>
<g><path style="opacity:0.88" fill="#fec10f" d="M 862.5,637.5 C 863.537,639.738 863.703,642.071 863,644.5C 860.058,650.718 857.391,657.051 855,663.5C 854.184,664.823 853.017,665.489 851.5,665.5C 851.046,662.86 849.879,660.527 848,658.5C 839.833,649.667 831.333,641.167 822.5,633C 797.047,611.871 771.047,591.537 744.5,572C 749.569,566.526 753.903,560.526 757.5,554C 759.035,553.504 760.535,553.67 762,554.5C 777.276,564.89 792.11,575.89 806.5,587.5C 825.536,603.875 844.202,620.542 862.5,637.5 Z"/></g>
<g><path style="opacity:0.885" fill="#00b9f2" d="M 673.5,565.5 C 679.011,571.273 685.345,576.106 692.5,580C 693.731,581.183 693.731,582.349 692.5,583.5C 657.012,627.154 618.012,667.321 575.5,704C 563.075,713.349 550.575,722.515 538,731.5C 497.523,757.365 455.69,781.031 412.5,802.5C 397.495,808.947 382.162,814.614 366.5,819.5C 364.616,819.284 362.949,818.617 361.5,817.5C 360.566,810.168 358.233,803.334 354.5,797C 440.194,763.312 518.527,716.978 589.5,658C 620.548,629.792 648.548,598.959 673.5,565.5 Z"/></g>
<g><path style="opacity:0.845" fill="#abf322" d="M 736.5,576.5 C 738.017,576.511 739.184,577.177 740,578.5C 743.715,598.14 747.715,617.807 752,637.5C 753.976,644.544 751.81,649.877 745.5,653.5C 737.441,655.949 730.941,653.949 726,647.5C 725.399,641.16 724.733,634.826 724,628.5C 720.826,613.812 717.326,599.145 713.5,584.5C 718.772,583.629 724.105,582.629 729.5,581.5C 732.317,580.364 734.65,578.698 736.5,576.5 Z"/></g>
<g><path style="opacity:0.851" fill="#eb1b2f" d="M 743.5,699.5 C 748.491,698.829 752.491,700.496 755.5,704.5C 756.5,729.491 756.833,754.491 756.5,779.5C 748.359,777.946 740.192,777.612 732,778.5C 730.674,778.245 729.674,777.578 729,776.5C 729.648,753.139 730.981,729.806 733,706.5C 733.309,705.234 733.809,704.067 734.5,703C 737.625,701.849 740.625,700.682 743.5,699.5 Z"/></g>
<g><path style="opacity:0.997" fill="#fabe0f" d="M 308.5,796.5 C 313.875,796.172 319.208,796.505 324.5,797.5C 328.288,800.061 332.288,802.061 336.5,803.5C 338.651,807.154 340.317,811.154 341.5,815.5C 343.408,840.918 331.741,851.251 306.5,846.5C 296.184,841.846 291.184,833.846 291.5,822.5C 291.529,817.637 292.362,812.97 294,808.5C 296.35,806.317 298.517,803.984 300.5,801.5C 303.534,800.252 306.2,798.586 308.5,796.5 Z"/></g>
<g><path style="opacity:0.962" fill="#aaf022" d="M 730.5,798.5 C 747.649,796.158 758.816,803.158 764,819.5C 764.828,829.676 761.661,838.343 754.5,845.5C 745.638,849.597 736.305,850.597 726.5,848.5C 712.241,839.368 708.241,826.868 714.5,811C 718.947,805.35 724.28,801.183 730.5,798.5 Z"/></g>
<g><path style="opacity:0.875" fill="#fec20e" d="M 359.5,836.5 C 399.415,855.893 441.415,868.726 485.5,875C 557.004,883.633 624.338,871.299 687.5,838C 689.436,837.187 691.436,836.687 693.5,836.5C 693.343,837.873 693.51,839.207 694,840.5C 697.738,846.394 701.238,852.394 704.5,858.5C 612.731,903.446 517.064,912.946 417.5,887C 394.56,879.673 372.227,870.673 350.5,860C 349.196,859.196 348.529,858.029 348.5,856.5C 353.216,850.401 356.883,843.734 359.5,836.5 Z"/></g>
</svg>
